<svg width="30" height="30" viewBox="0 0 30 30" fill="none" xmlns="http://www.w3.org/2000/svg">
<path opacity="0.3" d="M5.06791 18.9977C10.4317 9.71022 16.9729 4.07897 26.1604 2.51772C26.3412 2.48546 26.5271 2.49737 26.7023 2.55242C26.8775 2.60747 27.0369 2.70403 27.1667 2.8339C27.2966 2.96376 27.3932 3.12308 27.4482 3.29829C27.5033 3.4735 27.5152 3.65942 27.4829 3.84022C25.9217 13.0277 20.2904 19.569 11.0029 24.9327L5.06791 18.9977ZM4.77416 21.6715L3.29166 25.5602C3.23045 25.7207 3.21698 25.8954 3.25286 26.0634C3.28874 26.2313 3.37245 26.3853 3.49389 26.5067C3.61533 26.6282 3.76931 26.7119 3.93726 26.7478C4.1052 26.7837 4.27994 26.7702 4.4404 26.709L8.33166 25.2252L4.77416 21.6715ZM20.6254 7.49772C20.2546 7.49772 19.8921 7.60769 19.5837 7.81371C19.2754 8.01974 19.035 8.31258 18.8931 8.65519C18.7512 8.9978 18.7141 9.3748 18.7864 9.73851C18.8588 10.1022 19.0374 10.4363 19.2996 10.6985C19.5618 10.9608 19.8959 11.1393 20.2596 11.2117C20.6233 11.284 21.0003 11.2469 21.3429 11.105C21.6856 10.9631 21.9784 10.7228 22.1844 10.4144C22.3904 10.1061 22.5004 9.74356 22.5004 9.37272C22.5004 8.87544 22.3029 8.39853 21.9512 8.04689C21.5996 7.69526 21.1227 7.49772 20.6254 7.49772Z" fill="#1B3554"/>
<path d="M5.06779 18.9976L2.80904 16.7388C2.69381 16.6236 2.60684 16.4833 2.55494 16.3288C2.50304 16.1743 2.48763 16.01 2.50991 15.8485C2.53219 15.6871 2.59156 15.5331 2.68336 15.3984C2.77517 15.2638 2.8969 15.1523 3.03904 15.0726L11.4415 10.3613C8.96691 12.9645 6.82588 15.8656 5.06779 18.9976ZM11.0003 24.9301L13.259 27.1888C13.3743 27.3041 13.5146 27.391 13.6691 27.4429C13.8235 27.4948 13.9879 27.5102 14.1493 27.488C14.3107 27.4657 14.4648 27.4063 14.5994 27.3145C14.7341 27.2227 14.8456 27.101 14.9253 26.9588L19.6365 18.5551C17.0337 21.0305 14.1326 23.172 11.0003 24.9301ZM8.80029 22.7288L15.729 15.8001C15.9226 15.5947 16.0285 15.322 16.0243 15.0398C16.0202 14.7577 15.9062 14.4882 15.7067 14.2887C15.5071 14.0891 15.2377 13.9752 14.9555 13.971C14.6733 13.9668 14.4006 14.0728 14.1953 14.2663L7.26654 21.1951L8.80029 22.7288Z" fill="#1B3554"/>
</svg>
