<svg width="26" height="26" viewBox="0 0 26 26" fill="none" xmlns="http://www.w3.org/2000/svg">
<path opacity="0.3" fill-rule="evenodd" clip-rule="evenodd" d="M4.33337 4.33334L12.6315 2.77745C12.8751 2.73177 13.125 2.73177 13.3686 2.77745L21.6667 4.33334V13.4033C21.6667 17.196 19.7129 20.7211 16.4967 22.7313L13.53 24.5854C13.2058 24.7881 12.7943 24.7881 12.47 24.5854L9.50339 22.7313C6.28719 20.7211 4.33337 17.196 4.33337 13.4033L4.33337 4.33334Z" fill="#00A3FF"/>
<path fill-rule="evenodd" clip-rule="evenodd" d="M12.1063 15.9792C11.8467 15.9792 11.5872 15.8753 11.3795 15.6677L9.30316 13.5913C8.88788 13.176 8.88788 12.5531 9.30316 12.1378C9.71844 11.7226 10.3933 11.7226 10.7566 12.1378L12.1063 13.4875L15.5323 10.0615C15.9476 9.64618 16.5705 9.64618 16.9858 10.0615C17.4011 10.4767 17.4011 11.0997 16.9858 11.5149L12.833 15.6677C12.6254 15.8753 12.3658 15.9792 12.1063 15.9792Z" fill="#00A3FF"/>
</svg>
