<svg width="26" height="26" viewBox="0 0 26 26" fill="none" xmlns="http://www.w3.org/2000/svg">
<path d="M12.9448 15.7516C9.20731 15.7516 6.05377 16.3623 6.05377 18.7194C6.05377 21.0774 9.22768 21.6667 12.9448 21.6667C16.6823 21.6667 19.8358 21.0559 19.8358 18.6989C19.8358 16.3409 16.6619 15.7516 12.9448 15.7516Z" fill="#1B3554"/>
<path opacity="0.4" d="M12.9448 13.506C15.4755 13.506 17.5048 11.465 17.5048 8.91965C17.5048 6.37333 15.4755 4.33334 12.9448 4.33334C10.414 4.33334 8.3847 6.37333 8.3847 8.91965C8.3847 11.465 10.414 13.506 12.9448 13.506Z" fill="#1B3554"/>
<path opacity="0.4" d="M22.8453 9.98756C23.5 7.41197 21.5804 5.09882 19.1359 5.09882C18.8701 5.09882 18.616 5.12808 18.3677 5.17784C18.3347 5.18564 18.2978 5.20223 18.2784 5.2315C18.2561 5.26857 18.2726 5.31833 18.2968 5.35052C19.0311 6.38661 19.4531 7.64806 19.4531 9.0022C19.4531 10.2998 19.0661 11.5095 18.3871 12.5134C18.3172 12.6168 18.3793 12.7563 18.5025 12.7778C18.6732 12.808 18.8478 12.8236 19.0263 12.8285C20.8063 12.8753 22.4039 11.7232 22.8453 9.98756Z" fill="#1B3554"/>
<path d="M24.71 16.0517C24.3841 15.3532 23.5974 14.8741 22.4014 14.639C21.8368 14.5005 20.309 14.3054 18.888 14.3317C18.8666 14.3346 18.855 14.3493 18.853 14.359C18.8501 14.3727 18.8559 14.3961 18.8841 14.4107C19.5408 14.7375 22.0793 16.159 21.7602 19.157C21.7466 19.2868 21.8504 19.399 21.9794 19.3795C22.6041 19.2897 24.2114 18.9424 24.71 17.8604C24.9855 17.2887 24.9855 16.6244 24.71 16.0517Z" fill="#1B3554"/>
<path opacity="0.4" d="M7.63184 5.17811C7.38449 5.12738 7.12937 5.09909 6.86358 5.09909C4.41913 5.09909 2.49947 7.41224 3.1552 9.98783C3.59559 11.7234 5.19321 12.8756 6.9732 12.8288C7.15168 12.8239 7.32725 12.8073 7.49701 12.7781C7.6202 12.7566 7.68228 12.6171 7.61244 12.5137C6.93343 11.5088 6.54639 10.3 6.54639 9.00248C6.54639 7.64736 6.96932 6.38591 7.70362 5.3508C7.7269 5.3186 7.74436 5.26885 7.72108 5.23177C7.70168 5.20153 7.66579 5.18592 7.63184 5.17811Z" fill="#1B3554"/>
<path d="M3.59833 14.6388C2.4023 14.8739 1.61658 15.3529 1.29065 16.0514C1.0142 16.6241 1.0142 17.2885 1.29065 17.8612C1.78924 18.9421 3.39657 19.2904 4.02126 19.3792C4.15027 19.3987 4.25309 19.2875 4.23951 19.1568C3.92038 16.1597 6.45892 14.7383 7.11659 14.4114C7.14375 14.3958 7.14957 14.3734 7.14666 14.3588C7.14472 14.349 7.13405 14.3344 7.11271 14.3324C5.69066 14.3051 4.16385 14.5002 3.59833 14.6388Z" fill="#1B3554"/>
</svg>
