<svg width="568" height="242" viewBox="0 0 568 242" fill="none" xmlns="http://www.w3.org/2000/svg">
<g filter="url(#filter0_ddd_1806_1100)">
<path d="M54 53C54 48.5817 57.5817 45 62 45H513C517.418 45 521 48.5817 521 53V169C521 173.418 517.418 177 513 177H62C57.5817 177 54 173.418 54 169V53Z" fill="white"/>
<g filter="url(#filter1_d_1806_1100)">
<rect width="467" height="44" transform="translate(54 89)" fill="white"/>
<rect x="54" y="130" width="467" height="3" fill="#3855B3" fill-opacity="0.12"/>
<rect x="54" y="130" width="125" height="3" fill="#00B9F2"/>
<path fill-rule="evenodd" clip-rule="evenodd" d="M69 102C68.1715 102 67.5 102.672 67.5 103.5V118.5C67.5 119.328 68.1715 120 69 120H81C81.8284 120 82.5 119.328 82.5 118.5V111V106.554C82.5 106.399 82.4376 106.25 82.3259 106.138L78.3721 102.185C78.2542 102.067 78.0914 102 77.9211 102H75H69ZM74.375 108.6C74.375 108.269 74.6549 108 75 108C75.3451 108 75.625 108.269 75.625 108.6V109.2H76.875C77.2201 109.2 77.5 109.469 77.5 109.8C77.5 110.131 77.2201 110.4 76.875 110.4H75.625V111.6H76.875C77.2201 111.6 77.5 111.869 77.5 112.2C77.5 112.531 77.2201 112.8 76.875 112.8H75.625V114H76.875C77.2201 114 77.5 114.269 77.5 114.6C77.5 114.931 77.2201 115.2 76.875 115.2H75.625V115.8C75.625 116.131 75.3451 116.4 75 116.4C74.6549 116.4 74.375 116.131 74.375 115.8V114H73.125C72.7799 114 72.5 113.731 72.5 113.4C72.5 113.069 72.7799 112.8 73.125 112.8H74.375V111.6H73.125C72.7799 111.6 72.5 111.331 72.5 111C72.5 110.669 72.7799 110.4 73.125 110.4H74.375V108.6Z" fill="#A27C62"/>
<path d="M82.5 106.5C82.5 106.5 82.5 106.125 82.125 105.75L78.75 102.375C78.375 102 78 102 78 102V105.75C78 106.125 78.375 106.5 78.75 106.5H82.5Z" fill="#D8C1B2"/>
<path d="M100.532 109.738C100.341 109.706 100.133 109.69 99.9102 109.69C99.0807 109.69 98.5179 110.044 98.2217 110.75V116H96.957V108.604H98.1875L98.208 109.458C98.6227 108.797 99.2106 108.467 99.9717 108.467C100.218 108.467 100.405 108.499 100.532 108.562V109.738ZM104.634 116.137C103.631 116.137 102.815 115.809 102.187 115.152C101.558 114.492 101.243 113.61 101.243 112.507V112.274C101.243 111.541 101.382 110.887 101.66 110.312C101.943 109.734 102.335 109.283 102.836 108.959C103.342 108.631 103.889 108.467 104.477 108.467C105.438 108.467 106.186 108.784 106.719 109.417C107.252 110.05 107.519 110.957 107.519 112.138V112.664H102.508C102.526 113.393 102.738 113.983 103.144 114.435C103.554 114.881 104.073 115.104 104.702 115.104C105.149 115.104 105.527 115.013 105.837 114.831C106.147 114.649 106.418 114.407 106.65 114.106L107.423 114.708C106.803 115.66 105.873 116.137 104.634 116.137ZM104.477 109.506C103.966 109.506 103.538 109.693 103.191 110.066C102.845 110.436 102.631 110.955 102.549 111.625H106.254V111.529C106.217 110.887 106.044 110.39 105.734 110.039C105.424 109.684 105.005 109.506 104.477 109.506ZM113.295 114.038C113.295 113.696 113.165 113.432 112.905 113.245C112.65 113.054 112.201 112.89 111.559 112.753C110.921 112.616 110.412 112.452 110.034 112.261C109.66 112.069 109.382 111.841 109.2 111.577C109.022 111.313 108.934 110.998 108.934 110.634C108.934 110.028 109.189 109.515 109.699 109.096C110.214 108.676 110.87 108.467 111.668 108.467C112.507 108.467 113.186 108.683 113.705 109.116C114.229 109.549 114.491 110.103 114.491 110.777H113.22C113.22 110.431 113.072 110.132 112.775 109.882C112.484 109.631 112.115 109.506 111.668 109.506C111.208 109.506 110.848 109.606 110.588 109.807C110.328 110.007 110.198 110.269 110.198 110.593C110.198 110.898 110.319 111.128 110.561 111.283C110.802 111.438 111.237 111.586 111.866 111.728C112.5 111.869 113.012 112.037 113.404 112.233C113.796 112.429 114.086 112.666 114.272 112.944C114.464 113.218 114.56 113.553 114.56 113.949C114.56 114.61 114.295 115.141 113.767 115.542C113.238 115.938 112.552 116.137 111.709 116.137C111.117 116.137 110.592 116.032 110.137 115.822C109.681 115.613 109.323 115.321 109.063 114.947C108.808 114.569 108.681 114.161 108.681 113.724H109.945C109.968 114.147 110.137 114.485 110.451 114.735C110.77 114.981 111.189 115.104 111.709 115.104C112.188 115.104 112.57 115.009 112.857 114.817C113.149 114.621 113.295 114.362 113.295 114.038ZM115.872 112.233C115.872 111.509 116.013 110.857 116.296 110.278C116.583 109.7 116.979 109.253 117.485 108.938C117.996 108.624 118.577 108.467 119.229 108.467C120.236 108.467 121.049 108.815 121.669 109.513C122.293 110.21 122.605 111.137 122.605 112.295V112.384C122.605 113.104 122.466 113.751 122.188 114.325C121.915 114.895 121.521 115.339 121.006 115.658C120.495 115.977 119.908 116.137 119.242 116.137C118.24 116.137 117.426 115.788 116.802 115.091C116.182 114.394 115.872 113.471 115.872 112.322V112.233ZM117.144 112.384C117.144 113.204 117.333 113.863 117.711 114.359C118.094 114.856 118.604 115.104 119.242 115.104C119.885 115.104 120.395 114.854 120.773 114.353C121.152 113.847 121.341 113.14 121.341 112.233C121.341 111.422 121.147 110.766 120.76 110.265C120.377 109.759 119.867 109.506 119.229 109.506C118.604 109.506 118.101 109.754 117.718 110.251C117.335 110.748 117.144 111.459 117.144 112.384ZM128.758 115.269C128.266 115.847 127.543 116.137 126.591 116.137C125.802 116.137 125.201 115.909 124.786 115.453C124.376 114.993 124.169 114.314 124.164 113.416V108.604H125.429V113.382C125.429 114.503 125.884 115.063 126.796 115.063C127.762 115.063 128.405 114.703 128.724 113.983V108.604H129.988V116H128.785L128.758 115.269ZM135.491 109.738C135.3 109.706 135.092 109.69 134.869 109.69C134.04 109.69 133.477 110.044 133.181 110.75V116H131.916V108.604H133.146L133.167 109.458C133.582 108.797 134.17 108.467 134.931 108.467C135.177 108.467 135.364 108.499 135.491 108.562V109.738ZM139.49 115.104C139.941 115.104 140.336 114.968 140.673 114.694C141.01 114.421 141.197 114.079 141.233 113.669H142.43C142.407 114.093 142.261 114.496 141.992 114.879C141.723 115.262 141.363 115.567 140.912 115.795C140.465 116.023 139.992 116.137 139.49 116.137C138.483 116.137 137.681 115.802 137.084 115.132C136.492 114.457 136.195 113.537 136.195 112.37V112.158C136.195 111.438 136.327 110.798 136.592 110.237C136.856 109.677 137.234 109.242 137.727 108.932C138.223 108.622 138.809 108.467 139.483 108.467C140.313 108.467 141.001 108.715 141.548 109.212C142.099 109.709 142.393 110.354 142.43 111.146H141.233C141.197 110.668 141.015 110.276 140.687 109.971C140.363 109.661 139.962 109.506 139.483 109.506C138.841 109.506 138.342 109.738 137.986 110.203C137.635 110.663 137.46 111.331 137.46 112.206V112.445C137.46 113.298 137.635 113.954 137.986 114.414C138.337 114.874 138.839 115.104 139.49 115.104ZM146.921 116.137C145.918 116.137 145.103 115.809 144.474 115.152C143.845 114.492 143.53 113.61 143.53 112.507V112.274C143.53 111.541 143.669 110.887 143.947 110.312C144.23 109.734 144.622 109.283 145.123 108.959C145.629 108.631 146.176 108.467 146.764 108.467C147.725 108.467 148.473 108.784 149.006 109.417C149.539 110.05 149.806 110.957 149.806 112.138V112.664H144.795C144.813 113.393 145.025 113.983 145.431 114.435C145.841 114.881 146.36 115.104 146.989 115.104C147.436 115.104 147.814 115.013 148.124 114.831C148.434 114.649 148.705 114.407 148.938 114.106L149.71 114.708C149.09 115.66 148.16 116.137 146.921 116.137ZM146.764 109.506C146.253 109.506 145.825 109.693 145.479 110.066C145.132 110.436 144.918 110.955 144.836 111.625H148.541V111.529C148.505 110.887 148.331 110.39 148.021 110.039C147.712 109.684 147.292 109.506 146.764 109.506ZM155.582 114.038C155.582 113.696 155.452 113.432 155.192 113.245C154.937 113.054 154.488 112.89 153.846 112.753C153.208 112.616 152.7 112.452 152.321 112.261C151.948 112.069 151.67 111.841 151.487 111.577C151.31 111.313 151.221 110.998 151.221 110.634C151.221 110.028 151.476 109.515 151.986 109.096C152.501 108.676 153.158 108.467 153.955 108.467C154.794 108.467 155.473 108.683 155.992 109.116C156.516 109.549 156.778 110.103 156.778 110.777H155.507C155.507 110.431 155.359 110.132 155.062 109.882C154.771 109.631 154.402 109.506 153.955 109.506C153.495 109.506 153.135 109.606 152.875 109.807C152.615 110.007 152.485 110.269 152.485 110.593C152.485 110.898 152.606 111.128 152.848 111.283C153.089 111.438 153.524 111.586 154.153 111.728C154.787 111.869 155.299 112.037 155.691 112.233C156.083 112.429 156.373 112.666 156.56 112.944C156.751 113.218 156.847 113.553 156.847 113.949C156.847 114.61 156.582 115.141 156.054 115.542C155.525 115.938 154.839 116.137 153.996 116.137C153.404 116.137 152.88 116.032 152.424 115.822C151.968 115.613 151.61 115.321 151.351 114.947C151.095 114.569 150.968 114.161 150.968 113.724H152.232C152.255 114.147 152.424 114.485 152.738 114.735C153.057 114.981 153.477 115.104 153.996 115.104C154.475 115.104 154.857 115.009 155.145 114.817C155.436 114.621 155.582 114.362 155.582 114.038ZM163.826 117.032H157.564V116H163.826V117.032ZM168.837 116H167.565V107.571L165.016 108.508V107.359L168.639 105.999H168.837V116ZM174.381 110.408H175.331C175.928 110.399 176.397 110.242 176.739 109.937C177.081 109.631 177.252 109.219 177.252 108.699C177.252 107.533 176.671 106.949 175.509 106.949C174.962 106.949 174.524 107.106 174.196 107.421C173.873 107.731 173.711 108.143 173.711 108.658H172.446C172.446 107.87 172.733 107.216 173.308 106.696C173.886 106.172 174.62 105.91 175.509 105.91C176.448 105.91 177.184 106.159 177.717 106.655C178.25 107.152 178.517 107.842 178.517 108.727C178.517 109.16 178.375 109.579 178.093 109.984C177.815 110.39 177.434 110.693 176.951 110.894C177.498 111.067 177.92 111.354 178.216 111.755C178.517 112.156 178.667 112.646 178.667 113.225C178.667 114.118 178.375 114.826 177.792 115.351C177.209 115.875 176.45 116.137 175.516 116.137C174.581 116.137 173.82 115.884 173.232 115.378C172.649 114.872 172.357 114.204 172.357 113.375H173.629C173.629 113.899 173.8 114.318 174.142 114.633C174.483 114.947 174.941 115.104 175.516 115.104C176.126 115.104 176.593 114.945 176.917 114.626C177.241 114.307 177.402 113.849 177.402 113.252C177.402 112.673 177.225 112.229 176.869 111.919C176.514 111.609 176.001 111.45 175.331 111.44H174.381V110.408ZM186.645 111.755C186.645 113.236 186.392 114.337 185.886 115.057C185.38 115.777 184.589 116.137 183.514 116.137C182.452 116.137 181.666 115.786 181.155 115.084C180.645 114.378 180.381 113.325 180.362 111.926V110.237C180.362 108.774 180.615 107.688 181.121 106.977C181.627 106.266 182.42 105.91 183.5 105.91C184.571 105.91 185.359 106.254 185.865 106.942C186.371 107.626 186.631 108.683 186.645 110.114V111.755ZM185.38 110.025C185.38 108.954 185.229 108.175 184.929 107.688C184.628 107.195 184.152 106.949 183.5 106.949C182.853 106.949 182.381 107.193 182.085 107.681C181.789 108.168 181.636 108.918 181.627 109.93V111.953C181.627 113.029 181.782 113.824 182.092 114.339C182.406 114.849 182.88 115.104 183.514 115.104C184.138 115.104 184.601 114.863 184.901 114.38C185.207 113.897 185.366 113.136 185.38 112.097V110.025ZM190.104 110.408H191.054C191.651 110.399 192.12 110.242 192.462 109.937C192.804 109.631 192.975 109.219 192.975 108.699C192.975 107.533 192.394 106.949 191.231 106.949C190.685 106.949 190.247 107.106 189.919 107.421C189.595 107.731 189.434 108.143 189.434 108.658H188.169C188.169 107.87 188.456 107.216 189.03 106.696C189.609 106.172 190.343 105.91 191.231 105.91C192.17 105.91 192.906 106.159 193.439 106.655C193.973 107.152 194.239 107.842 194.239 108.727C194.239 109.16 194.098 109.579 193.815 109.984C193.537 110.39 193.157 110.693 192.674 110.894C193.221 111.067 193.642 111.354 193.938 111.755C194.239 112.156 194.39 112.646 194.39 113.225C194.39 114.118 194.098 114.826 193.515 115.351C192.931 115.875 192.173 116.137 191.238 116.137C190.304 116.137 189.543 115.884 188.955 115.378C188.372 114.872 188.08 114.204 188.08 113.375H189.352C189.352 113.899 189.522 114.318 189.864 114.633C190.206 114.947 190.664 115.104 191.238 115.104C191.849 115.104 192.316 114.945 192.64 114.626C192.963 114.307 193.125 113.849 193.125 113.252C193.125 112.673 192.947 112.229 192.592 111.919C192.236 111.609 191.724 111.45 191.054 111.44H190.104V110.408ZM202.367 111.755C202.367 113.236 202.114 114.337 201.608 115.057C201.103 115.777 200.312 116.137 199.236 116.137C198.174 116.137 197.388 115.786 196.878 115.084C196.368 114.378 196.103 113.325 196.085 111.926V110.237C196.085 108.774 196.338 107.688 196.844 106.977C197.35 106.266 198.143 105.91 199.223 105.91C200.294 105.91 201.082 106.254 201.588 106.942C202.094 107.626 202.354 108.683 202.367 110.114V111.755ZM201.103 110.025C201.103 108.954 200.952 108.175 200.651 107.688C200.351 107.195 199.874 106.949 199.223 106.949C198.576 106.949 198.104 107.193 197.808 107.681C197.511 108.168 197.359 108.918 197.35 109.93V111.953C197.35 113.029 197.505 113.824 197.814 114.339C198.129 114.849 198.603 115.104 199.236 115.104C199.861 115.104 200.323 114.863 200.624 114.38C200.929 113.897 201.089 113.136 201.103 112.097V110.025ZM204.145 115.337C204.145 115.118 204.208 114.936 204.336 114.79C204.468 114.644 204.664 114.571 204.924 114.571C205.184 114.571 205.38 114.644 205.512 114.79C205.648 114.936 205.717 115.118 205.717 115.337C205.717 115.547 205.648 115.722 205.512 115.863C205.38 116.005 205.184 116.075 204.924 116.075C204.664 116.075 204.468 116.005 204.336 115.863C204.208 115.722 204.145 115.547 204.145 115.337ZM208.998 114.968H213.325V116H207.453V115.07L211.534 109.649H207.515V108.604H213.12V109.499L208.998 114.968ZM216.128 116H214.863V108.604H216.128V116ZM214.761 106.642C214.761 106.437 214.822 106.263 214.945 106.122C215.073 105.981 215.26 105.91 215.506 105.91C215.752 105.91 215.939 105.981 216.066 106.122C216.194 106.263 216.258 106.437 216.258 106.642C216.258 106.847 216.194 107.018 216.066 107.154C215.939 107.291 215.752 107.359 215.506 107.359C215.26 107.359 215.073 107.291 214.945 107.154C214.822 107.018 214.761 106.847 214.761 106.642ZM224.406 112.384C224.406 113.509 224.149 114.416 223.634 115.104C223.119 115.793 222.422 116.137 221.542 116.137C220.644 116.137 219.938 115.852 219.423 115.282V118.844H218.158V108.604H219.313L219.375 109.424C219.89 108.786 220.605 108.467 221.521 108.467C222.41 108.467 223.112 108.802 223.627 109.472C224.146 110.142 224.406 111.074 224.406 112.268V112.384ZM223.142 112.24C223.142 111.406 222.964 110.748 222.608 110.265C222.253 109.782 221.765 109.54 221.146 109.54C220.38 109.54 219.806 109.88 219.423 110.559V114.093C219.801 114.767 220.38 115.104 221.159 115.104C221.765 115.104 222.246 114.865 222.602 114.387C222.962 113.904 223.142 113.188 223.142 112.24Z" fill="#181819" fill-opacity="0.9"/>
<path d="M392.949 115.641C394.771 115.641 396.055 114.451 396.055 112.734V112.723C396.055 111.105 394.889 109.939 393.271 109.939C392.439 109.939 391.736 110.262 391.355 110.83H391.326L391.584 108.152H395.562V107.045H390.523L390.107 111.92H391.256C391.367 111.732 391.502 111.568 391.66 111.434C392 111.129 392.451 110.977 392.973 110.977C394.021 110.977 394.766 111.709 394.771 112.746V112.758C394.771 113.807 394.027 114.545 392.961 114.545C392.018 114.545 391.326 113.959 391.215 113.197L391.209 113.15H389.955L389.961 113.221C390.078 114.615 391.256 115.641 392.949 115.641ZM401.141 115.5H402.4V113.818H403.566V112.717H402.4V107.045H400.502L396.91 112.676V113.818H401.141V115.5ZM398.129 112.734V112.699L401.117 108.082H401.152V112.734H398.129ZM407.123 115.5H408.318V109.26H408.359L410.908 115.5H411.881L414.43 109.26H414.471V115.5H415.666V107.045H414.154L411.412 113.795H411.377L408.641 107.045H407.123V115.5ZM417.225 115.5H420.617C422.416 115.5 423.5 114.598 423.5 113.115V113.104C423.5 111.99 422.721 111.164 421.52 111.041V111.018C422.41 110.889 423.084 110.062 423.084 109.172V109.16C423.084 107.883 422.1 107.045 420.6 107.045H417.225V115.5ZM420.283 108.117C421.232 108.117 421.777 108.545 421.777 109.318V109.33C421.777 110.18 421.15 110.648 419.99 110.648H418.537V108.117H420.283ZM420.26 111.662C421.514 111.662 422.158 112.131 422.158 113.039V113.051C422.158 113.953 421.525 114.428 420.348 114.428H418.537V111.662H420.26Z" fill="#181819" fill-opacity="0.9"/>
<path d="M429.564 115.623C431.328 115.623 432.488 114.404 432.488 112.418V112.406C432.488 110.432 431.316 109.219 429.559 109.219C427.807 109.219 426.641 110.438 426.641 112.406V112.418C426.641 114.398 427.795 115.623 429.564 115.623ZM429.57 114.562C428.58 114.562 427.936 113.783 427.936 112.418V112.406C427.936 111.059 428.586 110.279 429.559 110.279C430.549 110.279 431.193 111.059 431.193 112.406V112.418C431.193 113.777 430.561 114.562 429.57 114.562ZM433.836 115.5H435.107V110.344H436.338V109.336H435.084V108.703C435.084 108.158 435.354 107.883 435.922 107.883C436.08 107.883 436.238 107.895 436.361 107.912V106.975C436.191 106.945 435.91 106.922 435.652 106.922C434.398 106.922 433.836 107.484 433.836 108.68V109.336H432.986V110.344H433.836V115.5ZM441.939 115.5H443.223V107.045H441.928L439.701 108.627V109.869L441.91 108.346H441.939V115.5ZM445.285 115.5H451.068V114.393H447.043V114.34L448.965 112.453C450.482 110.953 450.934 110.268 450.934 109.301V109.289C450.934 107.924 449.773 106.904 448.15 106.904C446.498 106.904 445.215 108 445.215 109.512V109.547H446.457V109.512C446.469 108.656 447.178 107.988 448.168 107.988C449.023 107.988 449.633 108.562 449.639 109.365V109.377C449.639 110.033 449.387 110.479 448.262 111.604L445.285 114.598V115.5ZM455.311 115.641C457.326 115.641 458.539 113.959 458.539 111.275V111.264C458.539 108.58 457.326 106.904 455.311 106.904C453.289 106.904 452.082 108.58 452.082 111.264V111.275C452.082 113.959 453.289 115.641 455.311 115.641ZM455.311 114.545C454.104 114.545 453.406 113.303 453.406 111.275V111.264C453.406 109.236 454.104 108.006 455.311 108.006C456.512 108.006 457.215 109.236 457.215 111.264V111.275C457.215 113.303 456.512 114.545 455.311 114.545ZM462.271 115.5H463.467V109.26H463.508L466.057 115.5H467.029L469.578 109.26H469.619V115.5H470.814V107.045H469.303L466.561 113.795H466.525L463.789 107.045H462.271V115.5ZM472.373 115.5H475.766C477.564 115.5 478.648 114.598 478.648 113.115V113.104C478.648 111.99 477.869 111.164 476.668 111.041V111.018C477.559 110.889 478.232 110.062 478.232 109.172V109.16C478.232 107.883 477.248 107.045 475.748 107.045H472.373V115.5ZM475.432 108.117C476.381 108.117 476.926 108.545 476.926 109.318V109.33C476.926 110.18 476.299 110.648 475.139 110.648H473.686V108.117H475.432ZM475.408 111.662C476.662 111.662 477.307 112.131 477.307 113.039V113.051C477.307 113.953 476.674 114.428 475.496 114.428H473.686V111.662H475.408Z" fill="#181819" fill-opacity="0.42"/>
<path d="M500 103.5C495.852 103.5 492.5 106.852 492.5 111C492.5 115.148 495.852 118.5 500 118.5C504.148 118.5 507.5 115.148 507.5 111C507.5 106.852 504.148 103.5 500 103.5ZM503.75 113.693L502.693 114.75L500 112.057L497.307 114.75L496.25 113.693L498.943 111L496.25 108.307L497.307 107.25L500 109.943L502.693 107.25L503.75 108.307L501.057 111L503.75 113.693Z" fill="#181819" fill-opacity="0.42"/>
<rect x="54" y="132" width="467" height="1" fill="#E6E7E9"/>
</g>
<g filter="url(#filter2_d_1806_1100)">
<path d="M54 53C54 48.5817 57.5817 45 62 45H513C517.418 45 521 48.5817 521 53V89H54V53Z" fill="white"/>
<path fill-rule="evenodd" clip-rule="evenodd" d="M69 58C68.1715 58 67.5 58.6716 67.5 59.5V74.5C67.5 75.3284 68.1715 76 69 76H81C81.8284 76 82.5 75.3284 82.5 74.5V67V62.5539C82.5 62.399 82.4376 62.2501 82.3259 62.1384L78.3721 58.1845C78.2542 58.0666 78.0914 58 77.9211 58H75H69ZM74.375 64.6C74.375 64.2687 74.6549 64 75 64C75.3451 64 75.625 64.2687 75.625 64.6V65.2H76.875C77.2201 65.2 77.5 65.4687 77.5 65.8C77.5 66.1313 77.2201 66.4 76.875 66.4H75.625V67.6H76.875C77.2201 67.6 77.5 67.8687 77.5 68.2C77.5 68.5313 77.2201 68.8 76.875 68.8H75.625V70H76.875C77.2201 70 77.5 70.2687 77.5 70.6C77.5 70.9313 77.2201 71.2 76.875 71.2H75.625V71.8C75.625 72.1313 75.3451 72.4 75 72.4C74.6549 72.4 74.375 72.1313 74.375 71.8V70H73.125C72.7799 70 72.5 69.7313 72.5 69.4C72.5 69.0687 72.7799 68.8 73.125 68.8H74.375V67.6H73.125C72.7799 67.6 72.5 67.3313 72.5 67C72.5 66.6687 72.7799 66.4 73.125 66.4H74.375V64.6Z" fill="#A27C62"/>
<path d="M82.5 62.5C82.5 62.5 82.5 62.125 82.125 61.75L78.75 58.375C78.375 58 78 58 78 58V61.75C78 62.125 78.375 62.5 78.75 62.5H82.5Z" fill="#D8C1B2"/>
<path d="M100.532 65.7383C100.341 65.7064 100.133 65.6904 99.9102 65.6904C99.0807 65.6904 98.5179 66.0436 98.2217 66.75V72H96.957V64.6035H98.1875L98.208 65.458C98.6227 64.7972 99.2106 64.4668 99.9717 64.4668C100.218 64.4668 100.405 64.4987 100.532 64.5625V65.7383ZM104.634 72.1367C103.631 72.1367 102.815 71.8086 102.187 71.1523C101.558 70.4915 101.243 69.6097 101.243 68.5068V68.2744C101.243 67.5407 101.382 66.8867 101.66 66.3125C101.943 65.7337 102.335 65.2826 102.836 64.959C103.342 64.6309 103.889 64.4668 104.477 64.4668C105.438 64.4668 106.186 64.7835 106.719 65.417C107.252 66.0505 107.519 66.9574 107.519 68.1377V68.6641H102.508C102.526 69.3932 102.738 69.9834 103.144 70.4346C103.554 70.8812 104.073 71.1045 104.702 71.1045C105.149 71.1045 105.527 71.0133 105.837 70.8311C106.147 70.6488 106.418 70.4072 106.65 70.1064L107.423 70.708C106.803 71.6605 105.873 72.1367 104.634 72.1367ZM104.477 65.5059C103.966 65.5059 103.538 65.6927 103.191 66.0664C102.845 66.4355 102.631 66.9551 102.549 67.625H106.254V67.5293C106.217 66.8867 106.044 66.39 105.734 66.0391C105.424 65.6836 105.005 65.5059 104.477 65.5059ZM113.295 70.0381C113.295 69.6963 113.165 69.432 112.905 69.2451C112.65 69.0537 112.201 68.8896 111.559 68.7529C110.921 68.6162 110.412 68.4521 110.034 68.2607C109.66 68.0693 109.382 67.8415 109.2 67.5771C109.022 67.3128 108.934 66.9984 108.934 66.6338C108.934 66.0277 109.189 65.515 109.699 65.0957C110.214 64.6764 110.87 64.4668 111.668 64.4668C112.507 64.4668 113.186 64.6833 113.705 65.1162C114.229 65.5492 114.491 66.1029 114.491 66.7773H113.22C113.22 66.431 113.072 66.1325 112.775 65.8818C112.484 65.6312 112.115 65.5059 111.668 65.5059C111.208 65.5059 110.848 65.6061 110.588 65.8066C110.328 66.0072 110.198 66.2692 110.198 66.5928C110.198 66.8981 110.319 67.1283 110.561 67.2832C110.802 67.4382 111.237 67.5863 111.866 67.7275C112.5 67.8688 113.012 68.0374 113.404 68.2334C113.796 68.4294 114.086 68.6663 114.272 68.9443C114.464 69.2178 114.56 69.5527 114.56 69.9492C114.56 70.61 114.295 71.141 113.767 71.542C113.238 71.9385 112.552 72.1367 111.709 72.1367C111.117 72.1367 110.592 72.0319 110.137 71.8223C109.681 71.6126 109.323 71.321 109.063 70.9473C108.808 70.569 108.681 70.1611 108.681 69.7236H109.945C109.968 70.1475 110.137 70.4847 110.451 70.7354C110.77 70.9814 111.189 71.1045 111.709 71.1045C112.188 71.1045 112.57 71.0088 112.857 70.8174C113.149 70.6214 113.295 70.3617 113.295 70.0381ZM115.872 68.2334C115.872 67.5088 116.013 66.8571 116.296 66.2783C116.583 65.6995 116.979 65.2529 117.485 64.9385C117.996 64.624 118.577 64.4668 119.229 64.4668C120.236 64.4668 121.049 64.8154 121.669 65.5127C122.293 66.21 122.605 67.1374 122.605 68.2949V68.3838C122.605 69.1038 122.466 69.751 122.188 70.3252C121.915 70.8949 121.521 71.3392 121.006 71.6582C120.495 71.9772 119.908 72.1367 119.242 72.1367C118.24 72.1367 117.426 71.7881 116.802 71.0908C116.182 70.3936 115.872 69.4707 115.872 68.3223V68.2334ZM117.144 68.3838C117.144 69.2041 117.333 69.8626 117.711 70.3594C118.094 70.8561 118.604 71.1045 119.242 71.1045C119.885 71.1045 120.395 70.8538 120.773 70.3525C121.152 69.8467 121.341 69.1403 121.341 68.2334C121.341 67.4222 121.147 66.766 120.76 66.2646C120.377 65.7588 119.867 65.5059 119.229 65.5059C118.604 65.5059 118.101 65.7542 117.718 66.251C117.335 66.7477 117.144 67.4587 117.144 68.3838ZM128.758 71.2686C128.266 71.8473 127.543 72.1367 126.591 72.1367C125.802 72.1367 125.201 71.9089 124.786 71.4531C124.376 70.9928 124.169 70.3138 124.164 69.416V64.6035H125.429V69.3818C125.429 70.5029 125.884 71.0635 126.796 71.0635C127.762 71.0635 128.405 70.7035 128.724 69.9834V64.6035H129.988V72H128.785L128.758 71.2686ZM135.491 65.7383C135.3 65.7064 135.092 65.6904 134.869 65.6904C134.04 65.6904 133.477 66.0436 133.181 66.75V72H131.916V64.6035H133.146L133.167 65.458C133.582 64.7972 134.17 64.4668 134.931 64.4668C135.177 64.4668 135.364 64.4987 135.491 64.5625V65.7383ZM139.49 71.1045C139.941 71.1045 140.336 70.9678 140.673 70.6943C141.01 70.4209 141.197 70.0791 141.233 69.6689H142.43C142.407 70.0928 142.261 70.4961 141.992 70.8789C141.723 71.2617 141.363 71.5671 140.912 71.7949C140.465 72.0228 139.992 72.1367 139.49 72.1367C138.483 72.1367 137.681 71.8018 137.084 71.1318C136.492 70.4574 136.195 69.5368 136.195 68.3701V68.1582C136.195 67.4382 136.327 66.7979 136.592 66.2373C136.856 65.6768 137.234 65.2415 137.727 64.9316C138.223 64.6217 138.809 64.4668 139.483 64.4668C140.313 64.4668 141.001 64.7152 141.548 65.2119C142.099 65.7087 142.393 66.3535 142.43 67.1465H141.233C141.197 66.668 141.015 66.276 140.687 65.9707C140.363 65.6608 139.962 65.5059 139.483 65.5059C138.841 65.5059 138.342 65.7383 137.986 66.2031C137.635 66.6634 137.46 67.3311 137.46 68.2061V68.4453C137.46 69.2975 137.635 69.9538 137.986 70.4141C138.337 70.8743 138.839 71.1045 139.49 71.1045ZM146.921 72.1367C145.918 72.1367 145.103 71.8086 144.474 71.1523C143.845 70.4915 143.53 69.6097 143.53 68.5068V68.2744C143.53 67.5407 143.669 66.8867 143.947 66.3125C144.23 65.7337 144.622 65.2826 145.123 64.959C145.629 64.6309 146.176 64.4668 146.764 64.4668C147.725 64.4668 148.473 64.7835 149.006 65.417C149.539 66.0505 149.806 66.9574 149.806 68.1377V68.6641H144.795C144.813 69.3932 145.025 69.9834 145.431 70.4346C145.841 70.8812 146.36 71.1045 146.989 71.1045C147.436 71.1045 147.814 71.0133 148.124 70.8311C148.434 70.6488 148.705 70.4072 148.938 70.1064L149.71 70.708C149.09 71.6605 148.16 72.1367 146.921 72.1367ZM146.764 65.5059C146.253 65.5059 145.825 65.6927 145.479 66.0664C145.132 66.4355 144.918 66.9551 144.836 67.625H148.541V67.5293C148.505 66.8867 148.331 66.39 148.021 66.0391C147.712 65.6836 147.292 65.5059 146.764 65.5059ZM155.582 70.0381C155.582 69.6963 155.452 69.432 155.192 69.2451C154.937 69.0537 154.488 68.8896 153.846 68.7529C153.208 68.6162 152.7 68.4521 152.321 68.2607C151.948 68.0693 151.67 67.8415 151.487 67.5771C151.31 67.3128 151.221 66.9984 151.221 66.6338C151.221 66.0277 151.476 65.515 151.986 65.0957C152.501 64.6764 153.158 64.4668 153.955 64.4668C154.794 64.4668 155.473 64.6833 155.992 65.1162C156.516 65.5492 156.778 66.1029 156.778 66.7773H155.507C155.507 66.431 155.359 66.1325 155.062 65.8818C154.771 65.6312 154.402 65.5059 153.955 65.5059C153.495 65.5059 153.135 65.6061 152.875 65.8066C152.615 66.0072 152.485 66.2692 152.485 66.5928C152.485 66.8981 152.606 67.1283 152.848 67.2832C153.089 67.4382 153.524 67.5863 154.153 67.7275C154.787 67.8688 155.299 68.0374 155.691 68.2334C156.083 68.4294 156.373 68.6663 156.56 68.9443C156.751 69.2178 156.847 69.5527 156.847 69.9492C156.847 70.61 156.582 71.141 156.054 71.542C155.525 71.9385 154.839 72.1367 153.996 72.1367C153.404 72.1367 152.88 72.0319 152.424 71.8223C151.968 71.6126 151.61 71.321 151.351 70.9473C151.095 70.569 150.968 70.1611 150.968 69.7236H152.232C152.255 70.1475 152.424 70.4847 152.738 70.7354C153.057 70.9814 153.477 71.1045 153.996 71.1045C154.475 71.1045 154.857 71.0088 155.145 70.8174C155.436 70.6214 155.582 70.3617 155.582 70.0381ZM163.826 73.0322H157.564V72H163.826V73.0322ZM168.837 72H167.565V63.5713L165.016 64.5078V63.3594L168.639 61.999H168.837V72ZM174.381 66.4082H175.331C175.928 66.3991 176.397 66.2419 176.739 65.9365C177.081 65.6312 177.252 65.2188 177.252 64.6992C177.252 63.5326 176.671 62.9492 175.509 62.9492C174.962 62.9492 174.524 63.1064 174.196 63.4209C173.873 63.7308 173.711 64.1432 173.711 64.6582H172.446C172.446 63.8698 172.733 63.2158 173.308 62.6963C173.886 62.1722 174.62 61.9102 175.509 61.9102C176.448 61.9102 177.184 62.1585 177.717 62.6553C178.25 63.152 178.517 63.8424 178.517 64.7266C178.517 65.1595 178.375 65.5788 178.093 65.9844C177.815 66.39 177.434 66.693 176.951 66.8936C177.498 67.0667 177.92 67.3538 178.216 67.7549C178.517 68.1559 178.667 68.6458 178.667 69.2246C178.667 70.1178 178.375 70.8265 177.792 71.3506C177.209 71.8747 176.45 72.1367 175.516 72.1367C174.581 72.1367 173.82 71.8838 173.232 71.3779C172.649 70.8721 172.357 70.2044 172.357 69.375H173.629C173.629 69.8991 173.8 70.3184 174.142 70.6328C174.483 70.9473 174.941 71.1045 175.516 71.1045C176.126 71.1045 176.593 70.945 176.917 70.626C177.241 70.307 177.402 69.849 177.402 69.252C177.402 68.6732 177.225 68.2288 176.869 67.9189C176.514 67.609 176.001 67.4495 175.331 67.4404H174.381V66.4082ZM186.645 67.7549C186.645 69.236 186.392 70.3366 185.886 71.0566C185.38 71.7767 184.589 72.1367 183.514 72.1367C182.452 72.1367 181.666 71.7858 181.155 71.084C180.645 70.3776 180.381 69.3249 180.362 67.9258V66.2373C180.362 64.7744 180.615 63.6875 181.121 62.9766C181.627 62.2656 182.42 61.9102 183.5 61.9102C184.571 61.9102 185.359 62.2542 185.865 62.9424C186.371 63.626 186.631 64.6833 186.645 66.1143V67.7549ZM185.38 66.0254C185.38 64.9544 185.229 64.1751 184.929 63.6875C184.628 63.1953 184.152 62.9492 183.5 62.9492C182.853 62.9492 182.381 63.193 182.085 63.6807C181.789 64.1683 181.636 64.918 181.627 65.9297V67.9531C181.627 69.0286 181.782 69.8239 182.092 70.3389C182.406 70.8493 182.88 71.1045 183.514 71.1045C184.138 71.1045 184.601 70.863 184.901 70.3799C185.207 69.8968 185.366 69.1357 185.38 68.0967V66.0254ZM194.786 72H188.265V71.0908L191.71 67.2627C192.22 66.6839 192.571 66.2145 192.763 65.8545C192.959 65.4899 193.057 65.1139 193.057 64.7266C193.057 64.207 192.899 63.7809 192.585 63.4482C192.271 63.1156 191.851 62.9492 191.327 62.9492C190.698 62.9492 190.208 63.1292 189.857 63.4893C189.511 63.8447 189.338 64.3415 189.338 64.9795H188.073C188.073 64.0635 188.367 63.3229 188.955 62.7578C189.548 62.1927 190.338 61.9102 191.327 61.9102C192.252 61.9102 192.984 62.154 193.521 62.6416C194.059 63.1247 194.328 63.7695 194.328 64.5762C194.328 65.556 193.704 66.7227 192.455 68.0762L189.789 70.9678H194.786V72ZM200.973 67.625C200.708 67.9395 200.392 68.1924 200.022 68.3838C199.658 68.5752 199.257 68.6709 198.819 68.6709C198.245 68.6709 197.744 68.5296 197.315 68.2471C196.892 67.9645 196.563 67.568 196.331 67.0576C196.099 66.5426 195.982 65.9753 195.982 65.3555C195.982 64.6901 196.108 64.0908 196.358 63.5576C196.614 63.0244 196.974 62.6165 197.438 62.334C197.903 62.0514 198.446 61.9102 199.065 61.9102C200.05 61.9102 200.825 62.2793 201.39 63.0176C201.959 63.7513 202.244 64.7539 202.244 66.0254V66.3945C202.244 68.3314 201.861 69.7464 201.096 70.6396C200.33 71.5283 199.175 71.984 197.63 72.0068H197.384V70.9404H197.65C198.694 70.9222 199.496 70.651 200.057 70.127C200.617 69.5983 200.923 68.7643 200.973 67.625ZM199.024 67.625C199.448 67.625 199.838 67.4951 200.193 67.2354C200.553 66.9756 200.815 66.6543 200.979 66.2715V65.7656C200.979 64.9362 200.799 64.2617 200.439 63.7422C200.079 63.2227 199.624 62.9629 199.072 62.9629C198.516 62.9629 198.07 63.1771 197.732 63.6055C197.395 64.0293 197.227 64.5898 197.227 65.2871C197.227 65.9661 197.388 66.5267 197.712 66.9688C198.04 67.4062 198.478 67.625 199.024 67.625ZM204.145 71.3369C204.145 71.1182 204.208 70.9359 204.336 70.79C204.468 70.6442 204.664 70.5713 204.924 70.5713C205.184 70.5713 205.38 70.6442 205.512 70.79C205.648 70.9359 205.717 71.1182 205.717 71.3369C205.717 71.5465 205.648 71.722 205.512 71.8633C205.38 72.0046 205.184 72.0752 204.924 72.0752C204.664 72.0752 204.468 72.0046 204.336 71.8633C204.208 71.722 204.145 71.5465 204.145 71.3369ZM208.998 70.9678H213.325V72H207.453V71.0703L211.534 65.6494H207.515V64.6035H213.12V65.499L208.998 70.9678ZM216.128 72H214.863V64.6035H216.128V72ZM214.761 62.6416C214.761 62.4365 214.822 62.2633 214.945 62.1221C215.073 61.9808 215.26 61.9102 215.506 61.9102C215.752 61.9102 215.939 61.9808 216.066 62.1221C216.194 62.2633 216.258 62.4365 216.258 62.6416C216.258 62.8467 216.194 63.0176 216.066 63.1543C215.939 63.291 215.752 63.3594 215.506 63.3594C215.26 63.3594 215.073 63.291 214.945 63.1543C214.822 63.0176 214.761 62.8467 214.761 62.6416ZM224.406 68.3838C224.406 69.5094 224.149 70.4163 223.634 71.1045C223.119 71.7926 222.422 72.1367 221.542 72.1367C220.644 72.1367 219.938 71.8519 219.423 71.2822V74.8438H218.158V64.6035H219.313L219.375 65.4238C219.89 64.7858 220.605 64.4668 221.521 64.4668C222.41 64.4668 223.112 64.8018 223.627 65.4717C224.146 66.1416 224.406 67.0736 224.406 68.2676V68.3838ZM223.142 68.2402C223.142 67.4062 222.964 66.7477 222.608 66.2646C222.253 65.7816 221.765 65.54 221.146 65.54C220.38 65.54 219.806 65.8796 219.423 66.5586V70.0928C219.801 70.7673 220.38 71.1045 221.159 71.1045C221.765 71.1045 222.246 70.8652 222.602 70.3867C222.962 69.9036 223.142 69.1882 223.142 68.2402Z" fill="#181819" fill-opacity="0.9"/>
<path d="M385.25 71.5H379.514V70.5215L382.355 67.4219C382.766 66.9648 383.057 66.584 383.229 66.2793C383.404 65.9707 383.492 65.6621 383.492 65.3535C383.492 64.9473 383.377 64.6191 383.146 64.3691C382.92 64.1191 382.613 63.9941 382.227 63.9941C381.766 63.9941 381.408 64.1348 381.154 64.416C380.9 64.6973 380.773 65.082 380.773 65.5703H379.35C379.35 65.0508 379.467 64.584 379.701 64.1699C379.939 63.752 380.277 63.4277 380.715 63.1973C381.156 62.9668 381.664 62.8516 382.238 62.8516C383.066 62.8516 383.719 63.0605 384.195 63.4785C384.676 63.8926 384.916 64.4668 384.916 65.2012C384.916 65.627 384.795 66.0742 384.553 66.543C384.314 67.0078 383.922 67.5371 383.375 68.1309L381.289 70.3633H385.25V71.5ZM391.15 68.459H392.211V69.6016H391.15V71.5H389.727V69.6016H386.041L386 68.7344L389.68 62.9688H391.15V68.459ZM387.494 68.459H389.727V64.8965L389.621 65.084L387.494 68.459ZM398.715 67.9082C398.715 69.1348 398.484 70.0605 398.023 70.6855C397.566 71.3066 396.869 71.6172 395.932 71.6172C395.01 71.6172 394.314 71.3145 393.846 70.709C393.381 70.0996 393.143 69.1992 393.131 68.0078V66.5312C393.131 65.3047 393.359 64.3848 393.816 63.7715C394.277 63.1582 394.979 62.8516 395.92 62.8516C396.854 62.8516 397.549 63.1504 398.006 63.748C398.467 64.3457 398.703 65.2402 398.715 66.4316V67.9082ZM397.291 66.3145C397.291 65.5137 397.182 64.9277 396.963 64.5566C396.744 64.1816 396.396 63.9941 395.92 63.9941C395.455 63.9941 395.113 64.1719 394.895 64.5273C394.676 64.8789 394.561 65.4297 394.549 66.1797V68.1133C394.549 68.9102 394.66 69.5039 394.883 69.8945C395.105 70.2852 395.455 70.4805 395.932 70.4805C396.389 70.4805 396.727 70.3008 396.945 69.9414C397.164 69.5781 397.279 69.0117 397.291 68.2422V66.3145ZM405.113 62.9688L407.574 69.5078L410.029 62.9688H411.945V71.5H410.469V68.6875L410.615 64.9258L408.096 71.5H407.035L404.521 64.9316L404.668 68.6875V71.5H403.191V62.9688H405.113ZM413.703 71.5V62.9688H416.627C417.592 62.9688 418.326 63.1621 418.83 63.5488C419.334 63.9355 419.586 64.5117 419.586 65.2773C419.586 65.668 419.48 66.0195 419.27 66.332C419.059 66.6445 418.75 66.8867 418.344 67.0586C418.805 67.1836 419.16 67.4199 419.41 67.7676C419.664 68.1113 419.791 68.5254 419.791 69.0098C419.791 69.8105 419.533 70.4258 419.018 70.8555C418.506 71.2852 417.771 71.5 416.814 71.5H413.703ZM415.186 67.6504V70.3164H416.832C417.297 70.3164 417.66 70.2012 417.922 69.9707C418.184 69.7402 418.314 69.4199 418.314 69.0098C418.314 68.123 417.861 67.6699 416.955 67.6504H415.186ZM415.186 66.5605H416.639C417.1 66.5605 417.459 66.457 417.717 66.25C417.979 66.0391 418.109 65.7422 418.109 65.3594C418.109 64.9375 417.988 64.6328 417.746 64.4453C417.508 64.2578 417.135 64.1641 416.627 64.1641H415.186V66.5605Z" fill="#181819" fill-opacity="0.9"/>
<path d="M423.857 68.2715C423.857 67.6504 423.98 67.0918 424.227 66.5957C424.473 66.0957 424.818 65.7129 425.264 65.4473C425.709 65.1777 426.221 65.043 426.799 65.043C427.654 65.043 428.348 65.3184 428.879 65.8691C429.414 66.4199 429.703 67.1504 429.746 68.0605L429.752 68.3945C429.752 69.0195 429.631 69.5781 429.389 70.0703C429.15 70.5625 428.807 70.9434 428.357 71.2129C427.912 71.4824 427.396 71.6172 426.811 71.6172C425.916 71.6172 425.199 71.3203 424.66 70.7266C424.125 70.1289 423.857 69.334 423.857 68.3418V68.2715ZM425.281 68.3945C425.281 69.0469 425.416 69.5586 425.686 69.9297C425.955 70.2969 426.33 70.4805 426.811 70.4805C427.291 70.4805 427.664 70.293 427.93 69.918C428.199 69.543 428.334 68.9941 428.334 68.2715C428.334 67.6309 428.195 67.123 427.918 66.748C427.645 66.373 427.271 66.1855 426.799 66.1855C426.334 66.1855 425.965 66.3711 425.691 66.7422C425.418 67.1094 425.281 67.6602 425.281 68.3945ZM431.457 71.5V66.2148H430.49V65.1602H431.457V64.5801C431.457 63.877 431.652 63.334 432.043 62.9512C432.434 62.5684 432.98 62.377 433.684 62.377C433.934 62.377 434.199 62.4121 434.48 62.4824L434.445 63.5957C434.289 63.5645 434.107 63.5488 433.9 63.5488C433.221 63.5488 432.881 63.8984 432.881 64.5977V65.1602H434.17V66.2148H432.881V71.5H431.457ZM442.537 62.9277V64.1055H442.361C441.564 64.1172 440.928 64.3359 440.451 64.7617C439.975 65.1875 439.691 65.791 439.602 66.5723C440.059 66.0918 440.643 65.8516 441.354 65.8516C442.107 65.8516 442.701 66.1172 443.135 66.6484C443.572 67.1797 443.791 67.8652 443.791 68.7051C443.791 69.5723 443.535 70.2754 443.023 70.8145C442.516 71.3496 441.848 71.6172 441.02 71.6172C440.168 71.6172 439.477 71.3027 438.945 70.6738C438.418 70.0449 438.154 69.2207 438.154 68.2012V67.7148C438.154 66.2188 438.518 65.0469 439.244 64.1992C439.975 63.3516 441.023 62.9277 442.391 62.9277H442.537ZM441.008 67C440.695 67 440.408 67.0879 440.146 67.2637C439.889 67.4395 439.699 67.6738 439.578 67.9668V68.4004C439.578 69.0332 439.711 69.5371 439.977 69.9121C440.242 70.2832 440.586 70.4688 441.008 70.4688C441.43 70.4688 441.764 70.3105 442.01 69.9941C442.256 69.6777 442.379 69.2617 442.379 68.7461C442.379 68.2305 442.254 67.8105 442.004 67.4863C441.754 67.1621 441.422 67 441.008 67ZM450.488 67.9082C450.488 69.1348 450.258 70.0605 449.797 70.6855C449.34 71.3066 448.643 71.6172 447.705 71.6172C446.783 71.6172 446.088 71.3145 445.619 70.709C445.154 70.0996 444.916 69.1992 444.904 68.0078V66.5312C444.904 65.3047 445.133 64.3848 445.59 63.7715C446.051 63.1582 446.752 62.8516 447.693 62.8516C448.627 62.8516 449.322 63.1504 449.779 63.748C450.24 64.3457 450.477 65.2402 450.488 66.4316V67.9082ZM449.064 66.3145C449.064 65.5137 448.955 64.9277 448.736 64.5566C448.518 64.1816 448.17 63.9941 447.693 63.9941C447.229 63.9941 446.887 64.1719 446.668 64.5273C446.449 64.8789 446.334 65.4297 446.322 66.1797V68.1133C446.322 68.9102 446.434 69.5039 446.656 69.8945C446.879 70.2852 447.229 70.4805 447.705 70.4805C448.162 70.4805 448.5 70.3008 448.719 69.9414C448.938 69.5781 449.053 69.0117 449.064 68.2422V66.3145ZM457.309 67.9082C457.309 69.1348 457.078 70.0605 456.617 70.6855C456.16 71.3066 455.463 71.6172 454.525 71.6172C453.604 71.6172 452.908 71.3145 452.439 70.709C451.975 70.0996 451.736 69.1992 451.725 68.0078V66.5312C451.725 65.3047 451.953 64.3848 452.41 63.7715C452.871 63.1582 453.572 62.8516 454.514 62.8516C455.447 62.8516 456.143 63.1504 456.6 63.748C457.061 64.3457 457.297 65.2402 457.309 66.4316V67.9082ZM455.885 66.3145C455.885 65.5137 455.775 64.9277 455.557 64.5566C455.338 64.1816 454.99 63.9941 454.514 63.9941C454.049 63.9941 453.707 64.1719 453.488 64.5273C453.27 64.8789 453.154 65.4297 453.143 66.1797V68.1133C453.143 68.9102 453.254 69.5039 453.477 69.8945C453.699 70.2852 454.049 70.4805 454.525 70.4805C454.982 70.4805 455.32 70.3008 455.539 69.9414C455.758 69.5781 455.873 69.0117 455.885 68.2422V66.3145ZM463.707 62.9688L466.168 69.5078L468.623 62.9688H470.539V71.5H469.062V68.6875L469.209 64.9258L466.689 71.5H465.629L463.115 64.9316L463.262 68.6875V71.5H461.785V62.9688H463.707ZM472.297 71.5V62.9688H475.221C476.186 62.9688 476.92 63.1621 477.424 63.5488C477.928 63.9355 478.18 64.5117 478.18 65.2773C478.18 65.668 478.074 66.0195 477.863 66.332C477.652 66.6445 477.344 66.8867 476.938 67.0586C477.398 67.1836 477.754 67.4199 478.004 67.7676C478.258 68.1113 478.385 68.5254 478.385 69.0098C478.385 69.8105 478.127 70.4258 477.611 70.8555C477.1 71.2852 476.365 71.5 475.408 71.5H472.297ZM473.779 67.6504V70.3164H475.426C475.891 70.3164 476.254 70.2012 476.516 69.9707C476.777 69.7402 476.908 69.4199 476.908 69.0098C476.908 68.123 476.455 67.6699 475.549 67.6504H473.779ZM473.779 66.5605H475.232C475.693 66.5605 476.053 66.457 476.311 66.25C476.572 66.0391 476.703 65.7422 476.703 65.3594C476.703 64.9375 476.582 64.6328 476.34 64.4453C476.102 64.2578 475.729 64.1641 475.221 64.1641H473.779V66.5605Z" fill="#181819" fill-opacity="0.42"/>
<path d="M500 59.5C495.86 59.5 492.5 62.86 492.5 67C492.5 71.14 495.86 74.5 500 74.5C504.14 74.5 507.5 71.14 507.5 67C507.5 62.86 504.14 59.5 500 59.5ZM498.5 70.75L494.75 67L495.807 65.9425L498.5 68.6275L504.193 62.935L505.25 64L498.5 70.75Z" fill="#4CAF50"/>
<rect x="54" y="88" width="467" height="1" fill="#E6E7E9"/>
</g>
<path fill-rule="evenodd" clip-rule="evenodd" d="M69 146C68.1715 146 67.5 146.672 67.5 147.5V162.5C67.5 163.328 68.1715 164 69 164H81C81.8284 164 82.5 163.328 82.5 162.5V155V150.554C82.5 150.399 82.4376 150.25 82.3259 150.138L78.3721 146.185C78.2542 146.067 78.0914 146 77.9211 146H75H69ZM74.375 152.6C74.375 152.269 74.6549 152 75 152C75.3451 152 75.625 152.269 75.625 152.6V153.2H76.875C77.2201 153.2 77.5 153.469 77.5 153.8C77.5 154.131 77.2201 154.4 76.875 154.4H75.625V155.6H76.875C77.2201 155.6 77.5 155.869 77.5 156.2C77.5 156.531 77.2201 156.8 76.875 156.8H75.625V158H76.875C77.2201 158 77.5 158.269 77.5 158.6C77.5 158.931 77.2201 159.2 76.875 159.2H75.625V159.8C75.625 160.131 75.3451 160.4 75 160.4C74.6549 160.4 74.375 160.131 74.375 159.8V158H73.125C72.7799 158 72.5 157.731 72.5 157.4C72.5 157.069 72.7799 156.8 73.125 156.8H74.375V155.6H73.125C72.7799 155.6 72.5 155.331 72.5 155C72.5 154.669 72.7799 154.4 73.125 154.4H74.375V152.6Z" fill="#A27C62"/>
<path d="M82.5 150.5C82.5 150.5 82.5 150.125 82.125 149.75L78.75 146.375C78.375 146 78 146 78 146V149.75C78 150.125 78.375 150.5 78.75 150.5H82.5Z" fill="#D8C1B2"/>
<path d="M100.532 153.738C100.341 153.706 100.133 153.69 99.9102 153.69C99.0807 153.69 98.5179 154.044 98.2217 154.75V160H96.957V152.604H98.1875L98.208 153.458C98.6227 152.797 99.2106 152.467 99.9717 152.467C100.218 152.467 100.405 152.499 100.532 152.562V153.738ZM104.634 160.137C103.631 160.137 102.815 159.809 102.187 159.152C101.558 158.492 101.243 157.61 101.243 156.507V156.274C101.243 155.541 101.382 154.887 101.66 154.312C101.943 153.734 102.335 153.283 102.836 152.959C103.342 152.631 103.889 152.467 104.477 152.467C105.438 152.467 106.186 152.784 106.719 153.417C107.252 154.05 107.519 154.957 107.519 156.138V156.664H102.508C102.526 157.393 102.738 157.983 103.144 158.435C103.554 158.881 104.073 159.104 104.702 159.104C105.149 159.104 105.527 159.013 105.837 158.831C106.147 158.649 106.418 158.407 106.65 158.106L107.423 158.708C106.803 159.66 105.873 160.137 104.634 160.137ZM104.477 153.506C103.966 153.506 103.538 153.693 103.191 154.066C102.845 154.436 102.631 154.955 102.549 155.625H106.254V155.529C106.217 154.887 106.044 154.39 105.734 154.039C105.424 153.684 105.005 153.506 104.477 153.506ZM113.295 158.038C113.295 157.696 113.165 157.432 112.905 157.245C112.65 157.054 112.201 156.89 111.559 156.753C110.921 156.616 110.412 156.452 110.034 156.261C109.66 156.069 109.382 155.841 109.2 155.577C109.022 155.313 108.934 154.998 108.934 154.634C108.934 154.028 109.189 153.515 109.699 153.096C110.214 152.676 110.87 152.467 111.668 152.467C112.507 152.467 113.186 152.683 113.705 153.116C114.229 153.549 114.491 154.103 114.491 154.777H113.22C113.22 154.431 113.072 154.132 112.775 153.882C112.484 153.631 112.115 153.506 111.668 153.506C111.208 153.506 110.848 153.606 110.588 153.807C110.328 154.007 110.198 154.269 110.198 154.593C110.198 154.898 110.319 155.128 110.561 155.283C110.802 155.438 111.237 155.586 111.866 155.728C112.5 155.869 113.012 156.037 113.404 156.233C113.796 156.429 114.086 156.666 114.272 156.944C114.464 157.218 114.56 157.553 114.56 157.949C114.56 158.61 114.295 159.141 113.767 159.542C113.238 159.938 112.552 160.137 111.709 160.137C111.117 160.137 110.592 160.032 110.137 159.822C109.681 159.613 109.323 159.321 109.063 158.947C108.808 158.569 108.681 158.161 108.681 157.724H109.945C109.968 158.147 110.137 158.485 110.451 158.735C110.77 158.981 111.189 159.104 111.709 159.104C112.188 159.104 112.57 159.009 112.857 158.817C113.149 158.621 113.295 158.362 113.295 158.038ZM115.872 156.233C115.872 155.509 116.013 154.857 116.296 154.278C116.583 153.7 116.979 153.253 117.485 152.938C117.996 152.624 118.577 152.467 119.229 152.467C120.236 152.467 121.049 152.815 121.669 153.513C122.293 154.21 122.605 155.137 122.605 156.295V156.384C122.605 157.104 122.466 157.751 122.188 158.325C121.915 158.895 121.521 159.339 121.006 159.658C120.495 159.977 119.908 160.137 119.242 160.137C118.24 160.137 117.426 159.788 116.802 159.091C116.182 158.394 115.872 157.471 115.872 156.322V156.233ZM117.144 156.384C117.144 157.204 117.333 157.863 117.711 158.359C118.094 158.856 118.604 159.104 119.242 159.104C119.885 159.104 120.395 158.854 120.773 158.353C121.152 157.847 121.341 157.14 121.341 156.233C121.341 155.422 121.147 154.766 120.76 154.265C120.377 153.759 119.867 153.506 119.229 153.506C118.604 153.506 118.101 153.754 117.718 154.251C117.335 154.748 117.144 155.459 117.144 156.384ZM128.758 159.269C128.266 159.847 127.543 160.137 126.591 160.137C125.802 160.137 125.201 159.909 124.786 159.453C124.376 158.993 124.169 158.314 124.164 157.416V152.604H125.429V157.382C125.429 158.503 125.884 159.063 126.796 159.063C127.762 159.063 128.405 158.703 128.724 157.983V152.604H129.988V160H128.785L128.758 159.269ZM135.491 153.738C135.3 153.706 135.092 153.69 134.869 153.69C134.04 153.69 133.477 154.044 133.181 154.75V160H131.916V152.604H133.146L133.167 153.458C133.582 152.797 134.17 152.467 134.931 152.467C135.177 152.467 135.364 152.499 135.491 152.562V153.738ZM139.49 159.104C139.941 159.104 140.336 158.968 140.673 158.694C141.01 158.421 141.197 158.079 141.233 157.669H142.43C142.407 158.093 142.261 158.496 141.992 158.879C141.723 159.262 141.363 159.567 140.912 159.795C140.465 160.023 139.992 160.137 139.49 160.137C138.483 160.137 137.681 159.802 137.084 159.132C136.492 158.457 136.195 157.537 136.195 156.37V156.158C136.195 155.438 136.327 154.798 136.592 154.237C136.856 153.677 137.234 153.242 137.727 152.932C138.223 152.622 138.809 152.467 139.483 152.467C140.313 152.467 141.001 152.715 141.548 153.212C142.099 153.709 142.393 154.354 142.43 155.146H141.233C141.197 154.668 141.015 154.276 140.687 153.971C140.363 153.661 139.962 153.506 139.483 153.506C138.841 153.506 138.342 153.738 137.986 154.203C137.635 154.663 137.46 155.331 137.46 156.206V156.445C137.46 157.298 137.635 157.954 137.986 158.414C138.337 158.874 138.839 159.104 139.49 159.104ZM146.921 160.137C145.918 160.137 145.103 159.809 144.474 159.152C143.845 158.492 143.53 157.61 143.53 156.507V156.274C143.53 155.541 143.669 154.887 143.947 154.312C144.23 153.734 144.622 153.283 145.123 152.959C145.629 152.631 146.176 152.467 146.764 152.467C147.725 152.467 148.473 152.784 149.006 153.417C149.539 154.05 149.806 154.957 149.806 156.138V156.664H144.795C144.813 157.393 145.025 157.983 145.431 158.435C145.841 158.881 146.36 159.104 146.989 159.104C147.436 159.104 147.814 159.013 148.124 158.831C148.434 158.649 148.705 158.407 148.938 158.106L149.71 158.708C149.09 159.66 148.16 160.137 146.921 160.137ZM146.764 153.506C146.253 153.506 145.825 153.693 145.479 154.066C145.132 154.436 144.918 154.955 144.836 155.625H148.541V155.529C148.505 154.887 148.331 154.39 148.021 154.039C147.712 153.684 147.292 153.506 146.764 153.506ZM155.582 158.038C155.582 157.696 155.452 157.432 155.192 157.245C154.937 157.054 154.488 156.89 153.846 156.753C153.208 156.616 152.7 156.452 152.321 156.261C151.948 156.069 151.67 155.841 151.487 155.577C151.31 155.313 151.221 154.998 151.221 154.634C151.221 154.028 151.476 153.515 151.986 153.096C152.501 152.676 153.158 152.467 153.955 152.467C154.794 152.467 155.473 152.683 155.992 153.116C156.516 153.549 156.778 154.103 156.778 154.777H155.507C155.507 154.431 155.359 154.132 155.062 153.882C154.771 153.631 154.402 153.506 153.955 153.506C153.495 153.506 153.135 153.606 152.875 153.807C152.615 154.007 152.485 154.269 152.485 154.593C152.485 154.898 152.606 155.128 152.848 155.283C153.089 155.438 153.524 155.586 154.153 155.728C154.787 155.869 155.299 156.037 155.691 156.233C156.083 156.429 156.373 156.666 156.56 156.944C156.751 157.218 156.847 157.553 156.847 157.949C156.847 158.61 156.582 159.141 156.054 159.542C155.525 159.938 154.839 160.137 153.996 160.137C153.404 160.137 152.88 160.032 152.424 159.822C151.968 159.613 151.61 159.321 151.351 158.947C151.095 158.569 150.968 158.161 150.968 157.724H152.232C152.255 158.147 152.424 158.485 152.738 158.735C153.057 158.981 153.477 159.104 153.996 159.104C154.475 159.104 154.857 159.009 155.145 158.817C155.436 158.621 155.582 158.362 155.582 158.038ZM163.826 161.032H157.564V160H163.826V161.032ZM168.837 160H167.565V151.571L165.016 152.508V151.359L168.639 149.999H168.837V160ZM174.381 154.408H175.331C175.928 154.399 176.397 154.242 176.739 153.937C177.081 153.631 177.252 153.219 177.252 152.699C177.252 151.533 176.671 150.949 175.509 150.949C174.962 150.949 174.524 151.106 174.196 151.421C173.873 151.731 173.711 152.143 173.711 152.658H172.446C172.446 151.87 172.733 151.216 173.308 150.696C173.886 150.172 174.62 149.91 175.509 149.91C176.448 149.91 177.184 150.159 177.717 150.655C178.25 151.152 178.517 151.842 178.517 152.727C178.517 153.16 178.375 153.579 178.093 153.984C177.815 154.39 177.434 154.693 176.951 154.894C177.498 155.067 177.92 155.354 178.216 155.755C178.517 156.156 178.667 156.646 178.667 157.225C178.667 158.118 178.375 158.826 177.792 159.351C177.209 159.875 176.45 160.137 175.516 160.137C174.581 160.137 173.82 159.884 173.232 159.378C172.649 158.872 172.357 158.204 172.357 157.375H173.629C173.629 157.899 173.8 158.318 174.142 158.633C174.483 158.947 174.941 159.104 175.516 159.104C176.126 159.104 176.593 158.945 176.917 158.626C177.241 158.307 177.402 157.849 177.402 157.252C177.402 156.673 177.225 156.229 176.869 155.919C176.514 155.609 176.001 155.45 175.331 155.44H174.381V154.408ZM186.645 155.755C186.645 157.236 186.392 158.337 185.886 159.057C185.38 159.777 184.589 160.137 183.514 160.137C182.452 160.137 181.666 159.786 181.155 159.084C180.645 158.378 180.381 157.325 180.362 155.926V154.237C180.362 152.774 180.615 151.688 181.121 150.977C181.627 150.266 182.42 149.91 183.5 149.91C184.571 149.91 185.359 150.254 185.865 150.942C186.371 151.626 186.631 152.683 186.645 154.114V155.755ZM185.38 154.025C185.38 152.954 185.229 152.175 184.929 151.688C184.628 151.195 184.152 150.949 183.5 150.949C182.853 150.949 182.381 151.193 182.085 151.681C181.789 152.168 181.636 152.918 181.627 153.93V155.953C181.627 157.029 181.782 157.824 182.092 158.339C182.406 158.849 182.88 159.104 183.514 159.104C184.138 159.104 184.601 158.863 184.901 158.38C185.207 157.897 185.366 157.136 185.38 156.097V154.025ZM190.104 154.408H191.054C191.651 154.399 192.12 154.242 192.462 153.937C192.804 153.631 192.975 153.219 192.975 152.699C192.975 151.533 192.394 150.949 191.231 150.949C190.685 150.949 190.247 151.106 189.919 151.421C189.595 151.731 189.434 152.143 189.434 152.658H188.169C188.169 151.87 188.456 151.216 189.03 150.696C189.609 150.172 190.343 149.91 191.231 149.91C192.17 149.91 192.906 150.159 193.439 150.655C193.973 151.152 194.239 151.842 194.239 152.727C194.239 153.16 194.098 153.579 193.815 153.984C193.537 154.39 193.157 154.693 192.674 154.894C193.221 155.067 193.642 155.354 193.938 155.755C194.239 156.156 194.39 156.646 194.39 157.225C194.39 158.118 194.098 158.826 193.515 159.351C192.931 159.875 192.173 160.137 191.238 160.137C190.304 160.137 189.543 159.884 188.955 159.378C188.372 158.872 188.08 158.204 188.08 157.375H189.352C189.352 157.899 189.522 158.318 189.864 158.633C190.206 158.947 190.664 159.104 191.238 159.104C191.849 159.104 192.316 158.945 192.64 158.626C192.963 158.307 193.125 157.849 193.125 157.252C193.125 156.673 192.947 156.229 192.592 155.919C192.236 155.609 191.724 155.45 191.054 155.44H190.104V154.408ZM200.282 160H199.011V151.571L196.461 152.508V151.359L200.084 149.999H200.282V160ZM204.145 159.337C204.145 159.118 204.208 158.936 204.336 158.79C204.468 158.644 204.664 158.571 204.924 158.571C205.184 158.571 205.38 158.644 205.512 158.79C205.648 158.936 205.717 159.118 205.717 159.337C205.717 159.547 205.648 159.722 205.512 159.863C205.38 160.005 205.184 160.075 204.924 160.075C204.664 160.075 204.468 160.005 204.336 159.863C204.208 159.722 204.145 159.547 204.145 159.337ZM208.998 158.968H213.325V160H207.453V159.07L211.534 153.649H207.515V152.604H213.12V153.499L208.998 158.968ZM216.128 160H214.863V152.604H216.128V160ZM214.761 150.642C214.761 150.437 214.822 150.263 214.945 150.122C215.073 149.981 215.26 149.91 215.506 149.91C215.752 149.91 215.939 149.981 216.066 150.122C216.194 150.263 216.258 150.437 216.258 150.642C216.258 150.847 216.194 151.018 216.066 151.154C215.939 151.291 215.752 151.359 215.506 151.359C215.26 151.359 215.073 151.291 214.945 151.154C214.822 151.018 214.761 150.847 214.761 150.642ZM224.406 156.384C224.406 157.509 224.149 158.416 223.634 159.104C223.119 159.793 222.422 160.137 221.542 160.137C220.644 160.137 219.938 159.852 219.423 159.282V162.844H218.158V152.604H219.313L219.375 153.424C219.89 152.786 220.605 152.467 221.521 152.467C222.41 152.467 223.112 152.802 223.627 153.472C224.146 154.142 224.406 155.074 224.406 156.268V156.384ZM223.142 156.24C223.142 155.406 222.964 154.748 222.608 154.265C222.253 153.782 221.765 153.54 221.146 153.54C220.38 153.54 219.806 153.88 219.423 154.559V158.093C219.801 158.767 220.38 159.104 221.159 159.104C221.765 159.104 222.246 158.865 222.602 158.387C222.962 157.904 223.142 157.188 223.142 156.24Z" fill="#181819" fill-opacity="0.9"/>
<path d="M436.027 157.391L437.34 150.969H438.811L436.842 159.5H435.424L433.801 153.271L432.143 159.5H430.719L428.75 150.969H430.221L431.545 157.379L433.174 150.969H434.416L436.027 157.391ZM443.346 159.5C443.283 159.379 443.229 159.182 443.182 158.908C442.729 159.381 442.174 159.617 441.518 159.617C440.881 159.617 440.361 159.436 439.959 159.072C439.557 158.709 439.355 158.26 439.355 157.725C439.355 157.049 439.605 156.531 440.105 156.172C440.609 155.809 441.328 155.627 442.262 155.627H443.135V155.211C443.135 154.883 443.043 154.621 442.859 154.426C442.676 154.227 442.396 154.127 442.021 154.127C441.697 154.127 441.432 154.209 441.225 154.373C441.018 154.533 440.914 154.738 440.914 154.988H439.49C439.49 154.641 439.605 154.316 439.836 154.016C440.066 153.711 440.379 153.473 440.773 153.301C441.172 153.129 441.615 153.043 442.104 153.043C442.846 153.043 443.438 153.23 443.879 153.605C444.32 153.977 444.547 154.5 444.559 155.176V158.035C444.559 158.605 444.639 159.061 444.799 159.4V159.5H443.346ZM441.781 158.475C442.062 158.475 442.326 158.406 442.572 158.27C442.822 158.133 443.01 157.949 443.135 157.719V156.523H442.367C441.84 156.523 441.443 156.615 441.178 156.799C440.912 156.982 440.779 157.242 440.779 157.578C440.779 157.852 440.869 158.07 441.049 158.234C441.232 158.395 441.477 158.475 441.781 158.475ZM447.564 159.5H446.141V153.16H447.564V159.5ZM446.053 151.514C446.053 151.295 446.121 151.113 446.258 150.969C446.398 150.824 446.598 150.752 446.855 150.752C447.113 150.752 447.312 150.824 447.453 150.969C447.594 151.113 447.664 151.295 447.664 151.514C447.664 151.729 447.594 151.908 447.453 152.053C447.312 152.193 447.113 152.264 446.855 152.264C446.598 152.264 446.398 152.193 446.258 152.053C446.121 151.908 446.053 151.729 446.053 151.514ZM450.904 151.619V153.16H452.023V154.215H450.904V157.754C450.904 157.996 450.951 158.172 451.045 158.281C451.143 158.387 451.314 158.439 451.561 158.439C451.725 158.439 451.891 158.42 452.059 158.381V159.482C451.734 159.572 451.422 159.617 451.121 159.617C450.027 159.617 449.48 159.014 449.48 157.807V154.215H448.438V153.16H449.48V151.619H450.904ZM454.631 159.5H453.207V153.16H454.631V159.5ZM453.119 151.514C453.119 151.295 453.188 151.113 453.324 150.969C453.465 150.824 453.664 150.752 453.922 150.752C454.18 150.752 454.379 150.824 454.52 150.969C454.66 151.113 454.73 151.295 454.73 151.514C454.73 151.729 454.66 151.908 454.52 152.053C454.379 152.193 454.18 152.264 453.922 152.264C453.664 152.264 453.465 152.193 453.324 152.053C453.188 151.908 453.119 151.729 453.119 151.514ZM457.508 153.16L457.549 153.893C458.018 153.326 458.633 153.043 459.395 153.043C460.715 153.043 461.387 153.799 461.41 155.311V159.5H459.986V155.393C459.986 154.99 459.898 154.693 459.723 154.502C459.551 154.307 459.268 154.209 458.873 154.209C458.299 154.209 457.871 154.469 457.59 154.988V159.5H456.166V153.16H457.508ZM462.617 156.283C462.617 155.299 462.848 154.514 463.309 153.928C463.773 153.338 464.389 153.043 465.154 153.043C465.877 153.043 466.445 153.295 466.859 153.799L466.924 153.16H468.207V159.307C468.207 160.139 467.947 160.795 467.428 161.275C466.912 161.756 466.215 161.996 465.336 161.996C464.871 161.996 464.416 161.898 463.971 161.703C463.529 161.512 463.193 161.26 462.963 160.947L463.637 160.092C464.074 160.611 464.613 160.871 465.254 160.871C465.727 160.871 466.1 160.742 466.373 160.484C466.646 160.23 466.783 159.855 466.783 159.359V158.932C466.373 159.389 465.826 159.617 465.143 159.617C464.4 159.617 463.793 159.322 463.32 158.732C462.852 158.143 462.617 157.326 462.617 156.283ZM464.035 156.406C464.035 157.043 464.164 157.545 464.422 157.912C464.684 158.275 465.045 158.457 465.506 158.457C466.08 158.457 466.506 158.211 466.783 157.719V154.93C466.514 154.449 466.092 154.209 465.518 154.209C465.049 154.209 464.684 154.395 464.422 154.766C464.164 155.137 464.035 155.684 464.035 156.406ZM470.562 158C470.828 158 471.033 158.076 471.178 158.229C471.322 158.377 471.395 158.564 471.395 158.791C471.395 159.014 471.322 159.199 471.178 159.348C471.033 159.492 470.828 159.564 470.562 159.564C470.309 159.564 470.107 159.492 469.959 159.348C469.811 159.203 469.736 159.018 469.736 158.791C469.736 158.564 469.809 158.377 469.953 158.229C470.098 158.076 470.301 158 470.562 158ZM473.914 158C474.18 158 474.385 158.076 474.529 158.229C474.674 158.377 474.746 158.564 474.746 158.791C474.746 159.014 474.674 159.199 474.529 159.348C474.385 159.492 474.18 159.564 473.914 159.564C473.66 159.564 473.459 159.492 473.311 159.348C473.162 159.203 473.088 159.018 473.088 158.791C473.088 158.564 473.16 158.377 473.305 158.229C473.449 158.076 473.652 158 473.914 158ZM477.266 158C477.531 158 477.736 158.076 477.881 158.229C478.025 158.377 478.098 158.564 478.098 158.791C478.098 159.014 478.025 159.199 477.881 159.348C477.736 159.492 477.531 159.564 477.266 159.564C477.012 159.564 476.811 159.492 476.662 159.348C476.514 159.203 476.439 159.018 476.439 158.791C476.439 158.564 476.512 158.377 476.656 158.229C476.801 158.076 477.004 158 477.266 158Z" fill="#181819" fill-opacity="0.42"/>
<path d="M500 147.5C495.852 147.5 492.5 150.852 492.5 155C492.5 159.148 495.852 162.5 500 162.5C504.148 162.5 507.5 159.148 507.5 155C507.5 150.852 504.148 147.5 500 147.5ZM503.75 157.693L502.693 158.75L500 156.057L497.307 158.75L496.25 157.693L498.943 155L496.25 152.307L497.307 151.25L500 153.943L502.693 151.25L503.75 152.307L501.057 155L503.75 157.693Z" fill="#181819" fill-opacity="0.42"/>
<rect x="54" y="176" width="467" height="1" fill="#E6E7E9"/>
</g>
<defs>
<filter id="filter0_ddd_1806_1100" x="0" y="0" width="575" height="242" filterUnits="userSpaceOnUse" color-interpolation-filters="sRGB">
<feFlood flood-opacity="0" result="BackgroundImageFix"/>
<feColorMatrix in="SourceAlpha" type="matrix" values="0 0 0 0 0 0 0 0 0 0 0 0 0 0 0 0 0 0 127 0" result="hardAlpha"/>
<feMorphology radius="7" operator="erode" in="SourceAlpha" result="effect1_dropShadow_1806_1100"/>
<feOffset dy="11"/>
<feGaussianBlur stdDeviation="7.5"/>
<feColorMatrix type="matrix" values="0 0 0 0 0 0 0 0 0 0 0 0 0 0 0 0 0 0 0.06 0"/>
<feBlend mode="normal" in2="BackgroundImageFix" result="effect1_dropShadow_1806_1100"/>
<feColorMatrix in="SourceAlpha" type="matrix" values="0 0 0 0 0 0 0 0 0 0 0 0 0 0 0 0 0 0 127 0" result="hardAlpha"/>
<feMorphology radius="8" operator="dilate" in="SourceAlpha" result="effect2_dropShadow_1806_1100"/>
<feOffset dy="9"/>
<feGaussianBlur stdDeviation="23"/>
<feColorMatrix type="matrix" values="0 0 0 0 0 0 0 0 0 0 0 0 0 0 0 0 0 0 0.04 0"/>
<feBlend mode="normal" in2="effect1_dropShadow_1806_1100" result="effect2_dropShadow_1806_1100"/>
<feColorMatrix in="SourceAlpha" type="matrix" values="0 0 0 0 0 0 0 0 0 0 0 0 0 0 0 0 0 0 127 0" result="hardAlpha"/>
<feMorphology radius="3" operator="dilate" in="SourceAlpha" result="effect3_dropShadow_1806_1100"/>
<feOffset dy="24"/>
<feGaussianBlur stdDeviation="19"/>
<feColorMatrix type="matrix" values="0 0 0 0 0 0 0 0 0 0 0 0 0 0 0 0 0 0 0.05 0"/>
<feBlend mode="normal" in2="effect2_dropShadow_1806_1100" result="effect3_dropShadow_1806_1100"/>
<feBlend mode="normal" in="SourceGraphic" in2="effect3_dropShadow_1806_1100" result="shape"/>
</filter>
<filter id="filter1_d_1806_1100" x="54" y="89" width="467" height="45" filterUnits="userSpaceOnUse" color-interpolation-filters="sRGB">
<feFlood flood-opacity="0" result="BackgroundImageFix"/>
<feColorMatrix in="SourceAlpha" type="matrix" values="0 0 0 0 0 0 0 0 0 0 0 0 0 0 0 0 0 0 127 0" result="hardAlpha"/>
<feOffset dy="1"/>
<feColorMatrix type="matrix" values="0 0 0 0 0 0 0 0 0 0 0 0 0 0 0 0 0 0 0.08 0"/>
<feBlend mode="normal" in2="BackgroundImageFix" result="effect1_dropShadow_1806_1100"/>
<feBlend mode="normal" in="SourceGraphic" in2="effect1_dropShadow_1806_1100" result="shape"/>
</filter>
<filter id="filter2_d_1806_1100" x="54" y="45" width="467" height="45" filterUnits="userSpaceOnUse" color-interpolation-filters="sRGB">
<feFlood flood-opacity="0" result="BackgroundImageFix"/>
<feColorMatrix in="SourceAlpha" type="matrix" values="0 0 0 0 0 0 0 0 0 0 0 0 0 0 0 0 0 0 127 0" result="hardAlpha"/>
<feOffset dy="1"/>
<feColorMatrix type="matrix" values="0 0 0 0 0 0 0 0 0 0 0 0 0 0 0 0 0 0 0.08 0"/>
<feBlend mode="normal" in2="BackgroundImageFix" result="effect1_dropShadow_1806_1100"/>
<feBlend mode="normal" in="SourceGraphic" in2="effect1_dropShadow_1806_1100" result="shape"/>
</filter>
</defs>
</svg>
