<svg width="42" height="42" viewBox="0 0 42 42" fill="none" xmlns="http://www.w3.org/2000/svg">
<rect width="42" height="42" rx="4" fill="white"/>
<g clip-path="url(#clip0_3164_2472)">
<path d="M25.2623 19.125C25.2623 15.1903 22.0696 12 18.1317 12C14.1939 12 11.001 15.1903 11.001 19.125C11.001 23.0597 14.1939 26.2499 18.1317 26.2499C22.0696 26.2499 25.2623 23.0597 25.2623 19.125ZM18.1317 24.4686C15.1826 24.4686 12.7837 22.0718 12.7837 19.125C12.7837 16.1783 15.1826 13.7813 18.1317 13.7813C21.0807 13.7813 23.4798 16.1783 23.4798 19.125C23.4798 22.0718 21.0807 24.4686 18.1317 24.4686Z" fill="#1B3554"/>
<path d="M29.4923 27.9594L25.13 23.6002C24.48 24.6103 23.6198 25.4694 22.6089 26.1189L26.9716 30.4781C27.6681 31.1739 28.7973 31.1739 29.4923 30.4781C30.1888 29.7835 30.1888 28.6552 29.4923 27.9594Z" fill="#1B3554"/>
</g>
<defs>
<clipPath id="clip0_3164_2472">
<rect x="11" y="12" width="19.0152" height="19" rx="4" fill="white"/>
</clipPath>
</defs>
</svg>
