<svg width="40" height="40" viewBox="0 0 40 40" fill="none" xmlns="http://www.w3.org/2000/svg">
<rect x="1" y="1" width="38" height="38" rx="7" stroke="#F1F2F9" stroke-width="2"/>
<path d="M25.7099 12.2902C25.1109 12.0892 24.4809 12.0002 23.8499 12.0002C22.4599 11.9902 21.1109 12.4502 19.9999 13.2991C19.9099 13.2301 19.7999 13.1691 19.6999 13.1101C19.5999 13.0491 19.4199 12.9002 19.2699 12.8202L18.8899 12.6502C18.6899 12.5402 18.4809 12.4602 18.2599 12.3892C18.2399 12.3702 18.2099 12.3492 18.1699 12.3302H18.1109C17.5199 12.1292 16.9099 12.0192 16.28 12.0002H16.17C15.89 12.0002 15.611 12.0192 15.33 12.0602H15.21C14.91 12.0992 14.611 12.1692 14.321 12.2692C10.59 13.4901 9.26002 17.5401 10.39 21.0801C11.03 22.889 12.061 24.53 13.401 25.879C15.35 27.759 17.4809 29.419 19.7699 30.839L19.7816 30.8462C19.934 30.9406 20.1265 30.9417 20.2799 30.849C22.5609 29.419 24.6799 27.759 26.6108 25.889C27.9598 24.54 28.9898 22.889 29.6198 21.0801C30.7308 17.5401 29.4008 13.4901 25.7099 12.2902Z" fill="#FF4C4C"/>
</svg>
